# Blender v2.79 (sub 0) OBJ File: ''
# www.blender.org
mtllib plane.mtl
o Plane
v -2.000000 -1.000000 0.000000
v 2.000000 -1.000000 0.000000
v 2.000000 1.000000 0.000000
v -2.000000 1.000000 0.000000
vt 0.000000 1.000000
vt 1.000000 1.000000
vt 1.000000 0.000000
vt 0.000000 0.000000
vn 0.0000 0.0000 1.0000
vn 0.0000 0.0000 1.0000
vn 0.0000 0.0000 1.0000
vn 0.0000 0.0000 1.0000
f 1/1/1 2/2/1 3/3/1
f 1/1/1 3/4/1 4/2/1
t /home/eudald/Documents/Grafics/visualdatagpu-f02/resources/textures/earth1.png
tn /home/eudald/Documents/Grafics/visualdatagpu-f02/resources/textures/earth3.png
